<svg width="180" height="69" viewBox="0 0 180 69" fill="none" xmlns="http://www.w3.org/2000/svg">
<g filter="url(#filter0_d_2_35)">
<rect x="10" y="6" width="160" height="49" rx="5" fill="#EB6649"/>
</g>
<path d="M58.7949 25.608H60.8909L55.8189 37H54.1389L49.0669 25.608H51.2109L55.0029 34.408L58.7949 25.608ZM61.8302 37V28.92H63.8142V37H61.8302ZM61.7022 25.256H63.9262V27.224H61.7022V25.256ZM73.0741 33.064H67.5061C67.5487 33.928 67.7621 34.568 68.1461 34.984C68.5407 35.3893 69.1221 35.592 69.8901 35.592C70.7754 35.592 71.5967 35.304 72.3541 34.728L72.9301 36.104C72.5461 36.4133 72.0714 36.664 71.5061 36.856C70.9514 37.0373 70.3861 37.128 69.8101 37.128C68.4874 37.128 67.4474 36.7547 66.6901 36.008C65.9327 35.2613 65.5541 34.2373 65.5541 32.936C65.5541 32.1147 65.7194 31.384 66.0501 30.744C66.3807 30.104 66.8447 29.608 67.4421 29.256C68.0394 28.8933 68.7167 28.712 69.4741 28.712C70.5834 28.712 71.4581 29.0747 72.0981 29.8C72.7487 30.5147 73.0741 31.5013 73.0741 32.76V33.064ZM69.5221 30.152C68.9887 30.152 68.5514 30.312 68.2101 30.632C67.8794 30.9413 67.6661 31.3947 67.5701 31.992H71.3301C71.2661 31.384 71.0794 30.9253 70.7701 30.616C70.4714 30.3067 70.0554 30.152 69.5221 30.152ZM85.5391 28.92H87.4911L84.3231 37H82.5791L80.5791 31.704L78.6271 37H76.8671L73.6991 28.92H75.7471L77.8271 34.616L79.9231 28.92H81.3631L83.4591 34.664L85.5391 28.92ZM102.679 28.712C103.596 28.712 104.279 28.9893 104.727 29.544C105.175 30.088 105.399 30.92 105.399 32.04V37H103.399V32.104C103.399 31.464 103.292 31.0053 103.079 30.728C102.876 30.44 102.535 30.296 102.055 30.296C101.5 30.296 101.063 30.4933 100.743 30.888C100.433 31.272 100.279 31.8053 100.279 32.488V37H98.2787V32.104C98.2787 31.4747 98.1667 31.016 97.9427 30.728C97.7294 30.44 97.388 30.296 96.9187 30.296C96.364 30.296 95.9267 30.4933 95.6067 30.888C95.2867 31.272 95.1267 31.8053 95.1267 32.488V37H93.1427V31.208C93.1427 30.3547 93.1 29.592 93.0147 28.92H94.8867L95.0307 30.2C95.2654 29.72 95.6014 29.352 96.0387 29.096C96.4867 28.84 96.9987 28.712 97.5747 28.712C98.812 28.712 99.6174 29.224 99.9907 30.248C100.247 29.768 100.609 29.3947 101.079 29.128C101.559 28.8507 102.092 28.712 102.679 28.712ZM111.197 37.128C110.376 37.128 109.651 36.9573 109.021 36.616C108.403 36.2747 107.923 35.7893 107.581 35.16C107.251 34.52 107.085 33.7733 107.085 32.92C107.085 32.0667 107.251 31.3253 107.581 30.696C107.923 30.056 108.403 29.5653 109.021 29.224C109.651 28.8827 110.376 28.712 111.197 28.712C112.008 28.712 112.723 28.8827 113.341 29.224C113.96 29.5653 114.435 30.056 114.765 30.696C115.107 31.3253 115.277 32.0667 115.277 32.92C115.277 33.7733 115.107 34.52 114.765 35.16C114.435 35.7893 113.96 36.2747 113.341 36.616C112.723 36.9573 112.008 37.128 111.197 37.128ZM111.181 35.56C111.864 35.56 112.381 35.3413 112.733 34.904C113.096 34.456 113.277 33.7947 113.277 32.92C113.277 32.056 113.096 31.4 112.733 30.952C112.371 30.4933 111.859 30.264 111.197 30.264C110.525 30.264 110.008 30.4933 109.645 30.952C109.283 31.4 109.101 32.056 109.101 32.92C109.101 33.7947 109.277 34.456 109.629 34.904C109.992 35.3413 110.509 35.56 111.181 35.56ZM121.354 28.728C121.663 28.728 121.93 28.7707 122.154 28.856L122.138 30.68C121.797 30.5413 121.445 30.472 121.082 30.472C120.399 30.472 119.877 30.6693 119.514 31.064C119.162 31.4587 118.986 31.9813 118.986 32.632V37H117.002V31.208C117.002 30.3547 116.959 29.592 116.874 28.92H118.746L118.906 30.344C119.109 29.8213 119.429 29.4213 119.866 29.144C120.303 28.8667 120.799 28.728 121.354 28.728ZM130.183 33.064H124.615C124.658 33.928 124.871 34.568 125.255 34.984C125.65 35.3893 126.231 35.592 126.999 35.592C127.885 35.592 128.706 35.304 129.463 34.728L130.039 36.104C129.655 36.4133 129.181 36.664 128.615 36.856C128.061 37.0373 127.495 37.128 126.919 37.128C125.597 37.128 124.557 36.7547 123.799 36.008C123.042 35.2613 122.663 34.2373 122.663 32.936C122.663 32.1147 122.829 31.384 123.159 30.744C123.49 30.104 123.954 29.608 124.551 29.256C125.149 28.8933 125.826 28.712 126.583 28.712C127.693 28.712 128.567 29.0747 129.207 29.8C129.858 30.5147 130.183 31.5013 130.183 32.76V33.064ZM126.631 30.152C126.098 30.152 125.661 30.312 125.319 30.632C124.989 30.9413 124.775 31.3947 124.679 31.992H128.439C128.375 31.384 128.189 30.9253 127.879 30.616C127.581 30.3067 127.165 30.152 126.631 30.152Z" fill="white"/>
<defs>
<filter id="filter0_d_2_35" x="0" y="0" width="180" height="69" filterUnits="userSpaceOnUse" color-interpolation-filters="sRGB">
<feFlood flood-opacity="0" result="BackgroundImageFix"/>
<feColorMatrix in="SourceAlpha" type="matrix" values="0 0 0 0 0 0 0 0 0 0 0 0 0 0 0 0 0 0 127 0" result="hardAlpha"/>
<feOffset dy="4"/>
<feGaussianBlur stdDeviation="5"/>
<feColorMatrix type="matrix" values="0 0 0 0 0.921569 0 0 0 0 0.4 0 0 0 0 0.286275 0 0 0 0.25 0"/>
<feBlend mode="normal" in2="BackgroundImageFix" result="effect1_dropShadow_2_35"/>
<feBlend mode="normal" in="SourceGraphic" in2="effect1_dropShadow_2_35" result="shape"/>
</filter>
</defs>
</svg>
